<svg width="32" height="32" viewBox="0 0 1024 1024" fill="none" xmlns="http://www.w3.org/2000/svg">
  <!-- Simplified tsops logo for favicon -->
  <path fill="#3584EC" opacity="1.000000" stroke="none" 
    d="
M472.090210,805.051880 
	C449.127075,801.411133 427.100494,795.944092 405.766357,787.768738 
	C362.575531,771.217896 325.535828,745.764404 294.153687,711.783691 
	C261.287292,676.195740 238.001404,635.377808 225.577118,588.512939 
	C220.680740,570.043518 218.018051,551.244995 216.659348,532.115173 
	C214.315765,499.118683 217.424881,466.707245 225.994171,434.969635 
	C237.492218,392.384918 257.465363,354.102997 286.527039,320.590332 
	C313.220306,289.808838 345.015900,265.931000 381.707825,248.594589 
	C409.166077,235.620972 437.970795,226.940979 468.170135,222.750000 
	C487.717072,220.037323 507.316528,219.152512 526.924133,219.993195 
	C560.465637,221.431320 593.105164,227.879440 624.492554,240.082306 
	C659.622070,253.740051 691.135925,273.354492 718.534302,299.132874 
	C754.315918,332.798859 779.698486,373.267303 795.333862,419.919403 
	C801.889404,439.479614 806.666992,459.398132 808.880310,479.855957 
	C811.066650,500.063934 811.222168,520.299866 809.371765,540.637756 
	C807.115112,565.441406 801.589417,589.387756 793.096924,612.689697 
	C782.713074,641.181091 768.026489,667.295654 749.499634,691.340149 
	C731.799011,714.312378 711.341675,734.474243 688.018066,751.549011 
	C663.329041,769.623352 636.243530,783.322083 607.205078,793.173645 
	C585.911011,800.397888 563.996399,804.669678 541.736328,806.891907 
	C519.492493,809.112732 497.192627,808.614502 475.025177,805.233154 
	C474.205536,805.108093 473.363281,805.131409 472.090210,805.051880 
z"/>
  
  <!-- Second element -->
  <path fill="#3584EC" opacity="1.000000" stroke="none" 
    d="
M370.094666,546.893066 
	C399.930573,564.661682 419.979065,590.311401 433.872101,621.285522 
	C441.453522,638.188110 446.842285,655.837830 448.557098,674.161743 
	C449.943024,688.970947 450.041290,704.129150 448.524536,718.908203 
	C447.341064,730.439209 440.458862,739.106201 425.552124,735.035339 
	C409.103180,730.543335 394.709625,722.023743 380.711273,712.708496 
	C352.044647,693.632202 328.561279,669.346375 310.335815,640.254822 
	C293.636688,613.599548 281.862396,584.781311 276.374451,553.649109 
	C275.693451,549.785950 275.764923,545.598450 276.438873,541.726868 
	C277.970856,532.926086 285.469208,527.601685 295.272400,527.069946 
	C322.248383,525.606873 346.750122,533.322021 370.094666,546.893066 
z"/>
  
  <!-- Third element -->
  <path fill="#3584EC" opacity="1.000000" stroke="none" 
    d="
M685.673584,679.827637 
	C685.379333,679.897095 685.151367,680.059631 684.584167,680.600220 
	C682.375610,682.847656 680.572571,684.809998 678.769531,686.772400 
	C678.769531,686.772400 678.918823,686.922119 678.591248,686.897339 
	C678.097473,687.181458 677.931213,687.490356 677.764954,687.799255 
	C677.764954,687.799255 677.863037,687.858948 677.561340,687.880737 
	C677.061768,688.210999 676.863892,688.519409 676.665955,688.827881 
	C676.665955,688.827881 676.290222,688.958130 675.864380,689.164490 
	C674.632202,690.247192 673.825928,691.123535 673.019653,691.999878 
	C673.019653,691.999878 672.994629,691.990540 672.739136,692.030029 
	C672.299377,692.343506 672.115051,692.617554 671.930725,692.891602 
	C671.930725,692.891602 671.916382,692.914124 671.657837,692.941040 
	C671.084717,693.333069 670.770264,693.698303 670.455750,694.063477 
	C670.455750,694.063477 670.050903,694.340759 669.634888,694.692261 
	C664.442017,698.990234 659.665222,702.936768 654.888428,706.883240 
	C654.888428,706.883240 654.958618,706.996582 654.667114,706.960815 
	C654.211609,707.221130 654.047607,707.517273 653.883545,707.813354 
	C653.883545,707.813354 653.824463,707.813782 653.533081,707.864014 
	C652.979187,708.177551 652.716675,708.440796 652.454163,708.703979 
	C652.454163,708.703979 652.174622,708.748596 651.816040,708.883240 
	C651.272278,709.318237 651.087097,709.618530 650.901978,709.918884 
	C650.901978,709.918884 650.992676,709.995361 650.643860,710.000854 
	C649.648010,710.512573 649.000977,711.018738 648.354004,711.524902 
	C647!929260,711.784973 647.504456,712.044922 646.617371,712.548218 
	C644.905273,713.701050 643.655457,714.610596 642.405640,715.520081 
	C630.310974,721.722778 618.580200,728.825256 606.029968,733.901611 
	C590.169312,740.316956 579.561096,733.608093 578.151367,716.669617 
	C573.200745,657.186340 589.694031,605.176880 634.116699,563.893494 
	C655.399414,544.114746 680.814270,531.729187 709.915283,528.210205 
	C718.543945,527.166809 727.576172,526.890381 736.105713,528.252319 
	C746.590027,529.926392 751.869568,539.297180 750.307068,549.880981 
	C744.457825,589.501221 728.240051,624.705750 704.722046,656.772461 
	C700.799683,662.120544 696.422791,667.135132 691.780273,672.674683 
	C689.924866,674.706848 688.545044,676.368225 687.165283,678.029663 
	C687.165283,678.029663 686.860718,678.179626 686.514038,678.458923 
	C686.002808,679.101379 685.838196,679.464478 685.673584,679.827637 
z"/>
</svg>