<svg version="1.1" id="Layer_1" xmlns="http://www.w3.org/2000/svg" xmlns:xlink="http://www.w3.org/1999/xlink" x="0px" y="0px"
	 width="100%" viewBox="0 0 1024 1024" enable-background="new 0 0 1024 1024" xml:space="preserve">
<path fill="#3485EE" opacity="1.000000" stroke="none" 
	d="
M68.176460,399.037292 
	C68.178375,398.596588 68.180290,398.155884 68.594376,397.258545 
	C70.186844,392.748627 71.603523,388.747314 72.508133,384.633423 
	C77.485573,361.997742 82.371086,339.341644 87.220802,316.678131 
	C90.238358,302.576599 93.078880,288.437073 96.114113,274.339417 
	C97.533371,267.747437 99.125702,261.188141 100.828018,254.663193 
	C102.034103,250.040314 103.556099,245.499832 104.937073,240.922577 
	C104.937073,240.922577 104.990219,240.995819 105.307816,240.954376 
	C106.458145,240.414093 107.490234,240.087585 108.093231,239.390106 
	C115.250359,231.111618 123.312080,223.960861 133.015305,218.744675 
	C133.902618,218.267670 134.354721,216.981110 135.008926,216.070480 
	C135.008926,216.070480 135.031494,216.002579 135.410339,216.051727 
	C143.597000,212.677353 151.430252,209.309174 159.176285,205.751083 
	C160.021713,205.362732 160.364456,203.880066 160.940353,202.904953 
	C160.940353,202.904953 160.978149,202.994400 161.345337,202.999298 
	C163.154648,202.699356 164.737976,202.679504 166.017212,202.045792 
	C179.478470,195.377396 192.916473,188.660110 206.274628,181.788605 
	C207.488678,181.164093 208.103668,179.375015 208.996857,178.126724 
	C208.996857,178.126724 209.088242,177.965591 209.552826,178.025345 
	C211.606964,177.707062 213.317551,177.587097 214.765930,176.907974 
	C222.629013,173.221222 230.469604,169.479187 238.204056,165.532974 
	C239.414215,164.915543 240.040283,163.153320 240.936432,161.920441 
	C240.936432,161.920441 240.995499,161.998520 241.352386,161.980774 
	C246.354584,160.227203 251.217545,158.918289 255.606827,156.680344 
	C272.885254,147.870575 289.979584,138.700684 307.212341,129.800110 
	C317.942230,124.258202 328.809906,118.983643 339.593475,113.544914 
	C350.249878,108.170357 360.826294,102.634903 371.530212,97.357430 
	C391.039581,87.738487 410.670471,78.364410 430.124969,68.636787 
	C434.396149,66.501106 438.141388,63.313568 442.128815,60.610420 
	C442.247589,60.481956 442.366364,60.353493 442.870300,60.250168 
	C443.537048,60.051243 443.818634,59.827183 444.100189,59.603111 
	C444.228699,59.480465 444.357239,59.357822 445.046204,59.344208 
	C446.494110,59.481903 447.381622,59.510574 448.314758,59.639343 
	C448.689026,59.713360 448.828857,59.500362 448.871948,58.787544 
	C449.011475,58.043526 449.058899,57.612408 449.106323,57.181286 
	C449.106293,57.181286 449.155914,57.097294 449.315735,57.226456 
	C449.475555,57.355618 449.770325,57.462067 450.090271,57.512383 
	C460.597839,52.812023 470.864075,48.221493 480.951843,43.267563 
	C491.968597,37.857426 503.014587,32.894104 515.747864,33.837749 
	C517.485657,33.966537 519.283264,33.287807 521.053223,32.982964 
	C521.471130,32.994183 521.889099,33.005398 522.694580,33.439804 
	C524.527588,34.806396 525.862244,36.036953 527.437256,36.644432 
	C534.994751,39.559307 542.869873,41.772701 550.160889,45.229294 
	C563.042786,51.336437 575.534546,58.260765 588.278809,64.665550 
	C603.550049,72.340309 618.938660,79.781082 634.231201,87.413887 
	C646.109680,93.342659 657.906067,99.435768 669.763733,105.406494 
	C676.268616,108.681938 682.863892,111.778831 689.349976,115.090355 
	C703.073364,122.097008 716.687927,129.319473 730.465759,136.216324 
	C746.058105,144.021454 761.838562,151.450714 777.432312,159.253082 
	C799.431946,170.260651 821.327026,181.477219 843.305603,192.527161 
	C844.340942,193.047714 845.753418,192.818314 846.990234,192.938171 
	C847.569031,193.086243 848.147888,193.234299 848.907959,194.002075 
	C849.814453,195.648666 850.309143,197.135086 851.300110,197.632156 
	C862.811523,203.406326 874.531616,208.777557 885.916626,214.785828 
	C893.356384,218.712051 900.298889,223.572510 907.560669,227.850677 
	C908.968201,228.679901 910.822083,228.751541 912.470032,229.172638 
	C912.470032,229.172638 912.700439,229.237686 912.714233,229.709457 
	C913.465027,231.827255 913.816345,233.852158 915.001221,235.057968 
	C922.848816,243.043976 925.499390,253.415115 927.748840,263.713745 
	C932.661438,286.205261 936.902039,308.843018 941.591370,331.384827 
	C942.014343,333.418304 943.700623,335.188995 944.800232,337.081726 
	C944.878418,337.509369 944.956665,337.937012 944.824951,338.990570 
	C947.065308,352.814789 949.324097,366.052399 952.022522,379.199799 
	C954.474182,391.144989 957.467529,402.977936 960.103394,414.886688 
	C962.294922,424.788147 964.340027,434.722351 966.401794,444.652039 
	C968.360657,454.086395 969.882629,463.632477 972.337280,472.933990 
	C973.586609,477.667969 971.630066,483.550232 976.781067,487.066315 
	C976.858398,487.483765 976.935730,487.901184 976.831238,488.940033 
	C977.515076,495.354095 978.150574,501.195129 979.352600,506.917145 
	C979.880615,509.430908 981.562866,511.702240 982.721069,514.083618 
	C982.788452,514.516907 982.855835,514.950256 982.696289,516.040283 
	C982.481812,518.667419 982.164795,520.706909 982.560974,522.596802 
	C984.875549,533.637756 987.275024,544.663086 989.859680,555.643311 
	C990.314941,557.577393 991.780945,559.273499 992.780212,561.079529 
	C992.856262,561.513367 992.932312,561.947266 992.793701,563.010315 
	C995.313416,577.773743 998.047668,591.907898 1000.781982,606.042114 
	C1000.812866,606.458862 1000.843750,606.875549 1000.478149,607.725952 
	C999.414856,609.589905 998.555115,610.963379 998.113708,612.460266 
	C995.841797,620.165161 994.195679,628.043152 987.710388,633.846191 
	C986.021912,635.357117 985.868896,638.584045 985.010620,641.022888 
	C985.010681,641.022888 984.997986,640.999756 984.642883,641.008545 
	C977.494873,642.606079 975.976135,649.429504 971.975891,653.732971 
	C963.424377,662.932617 955.469604,672.693420 947.441345,682.366272 
	C946.184265,683.880920 945.825562,686.141174 945.051453,688.056702 
	C945.051453,688.056702 944.998413,688.004517 944.676758,688.074097 
	C938.139709,692.338562 933.611084,697.881592 930.949524,704.916809 
	C930.949524,704.916809 930.967712,704.992493 930.591736,704.981079 
	C923.205750,712.606812 916.102966,720.161316 909.209351,727.902161 
	C900.579773,737.592468 891.926331,747.274536 883.674194,757.282532 
	C879.661011,762.149536 876.536499,767.749451 873.009705,773.017578 
	C873.009705,773.017578 872.998413,773.000000 872.666931,773.057983 
	C870.577637,775.421814 868.819885,777.727661 867.062134,780.033508 
	C867.062134,780.033508 867.026672,780.024536 866.690674,780.092773 
	C864.578796,782.453979 862.802917,784.746948 861.027100,787.039917 
	C861.027039,787.039856 860.997803,787.002136 860.672119,787.060059 
	C859.239868,788.751221 858.133423,790.384521 857.026917,792.017761 
	C857.026917,792.017761 857.000000,792.000000 856.792114,792.126831 
	C856.309998,792.464233 856.134460,792.738037 856.057617,793.075073 
	C856.057617,793.075073 856.007690,793.004456 855.818787,793.136841 
	C855.353088,793.476318 855.174561,793.747986 855.094238,794.084229 
	C855.094238,794.084229 855.013306,794.008301 854.626709,794.039185 
	C848.478027,793.438354 848.906616,797.345032 849.100952,801.080017 
	C849.100952,801.080017 849.005981,801.036438 848.679077,801.085205 
	C842.943115,802.768311 842.033447,807.822815 840.047485,812.059143 
	C840.047485,812.059143 840.002197,812.000061 839.661133,812.028503 
	C838.203003,813.691833 837.086060,815.326782 835.969116,816.961731 
	C835.969116,816.961731 836.000000,817.000000 835.622192,816.996460 
	C828.762024,820.616821 825.267456,826.711914 822.005310,832.999207 
	C822.005310,832.999207 822.000000,833.000000 821.763794,833.086914 
	C821.357727,833.450867 821.187927,833.727905 821.018127,834.004944 
	C821.018127,834.004944 821.004761,834.006042 820.663086,834.066650 
	C819.219482,835.758728 818.117615,837.390076 817.015747,839.021484 
	C817.015747,839.021484 817.000000,838.999939 816.661133,839.036743 
	C810.674072,841.640564 807.693787,846.327515 806.013306,852.047363 
	C805.965820,852.384399 805.804504,852.653137 804.954346,852.979492 
	C803.247437,854.729980 802.115540,856.354492 800.983582,857.979004 
	C800.983582,857.979004 801.001587,858.000000 800.664978,858.009644 
	C797.027283,858.705688 795.838562,860.877258 796.083618,864.056824 
	C796.083618,864.056824 796.037476,864.030640 795.692627,864.075684 
	C794.676025,864.945190 794.004150,865.769653 793.332336,866.594177 
	C793.332336,866.594177 793.309448,866.853027 792.851929,867.002136 
	C790.937378,869.122742 789.480347,871.094299 788.023315,873.065796 
	C787.951599,873.218567 787.879944,873.371277 787.286255,873.733032 
	C780.762268,875.749084 778.463013,880.541931 777.020569,886.025635 
	C777.020569,886.025635 777.000000,886.000000 776.671753,886.062500 
	C775.217957,887.714111 774.092468,889.303284 772.966919,890.892456 
	C772.966919,890.892456 772.973206,890.978088 772.710022,891.071106 
	C772.173401,891.370422 772.027649,891.644653 772.009583,891.986816 
	C772.009583,891.986816 772.011047,892.009827 771.782593,892.122192 
	C771.282837,892.440735 771.112488,892.710693 771.043152,893.044434 
	C771.043152,893.044434 771.000000,893.003174 770.677856,893.058289 
	C769.552795,894.380249 768.749878,895.647034 767.946960,896.913818 
	C767.946960,896.913818 767.963074,896.985413 767.708740,897.034668 
	C767.163513,897.246704 766.997498,897.493469 766.956482,897.824280 
	C766.956482,897.824280 766.977234,897.962097 766.693115,898.066467 
	C766.143738,898.380005 766.003784,898.653320 765.989136,898.990906 
	C765.959473,899.336121 765.812927,899.621216 764.972656,899.973633 
	C762.602844,902.401428 760.809875,904.701843 759.016968,907.002197 
	C759.016968,907.002197 759.004761,907.004761 758.651123,907.059143 
	C757.200256,908.739136 756.103088,910.364746 755.005920,911.990356 
	C755.005920,911.990356 755.004578,912.005127 754.697632,912.066101 
	C753.919006,912.736145 753.447327,913.345215 752.975586,913.954285 
	C752.975586,913.954285 753.006042,913.992493 752.642395,914.047974 
	C751.175232,915.725769 750.071716,917.348022 748.968262,918.970337 
	C748.492310,919.570312 748.016235,920.170288 746.928040,920.936157 
	C744.212708,923.739868 742.109436,926.377502 740.006165,929.015137 
	C740.006165,929.015137 739.999207,928.998413 739.647095,929.004761 
	C738.060547,929.790649 736.861694,930.634644 735.585510,931.338318 
	C730.015015,934.410339 724.432129,937.460144 718.833008,940.479614 
	C716.214966,941.891602 713.549866,943.216553 710.906067,944.580933 
	C709.210205,944.690369 707.514343,944.799866 705.036011,944.675903 
	C702.603760,944.295044 700.953918,944.018738 699.304077,944.018616 
	C575.327393,944.008911 451.350739,944.016907 327.374084,944.066711 
	C325.257782,944.067566 323.141663,944.594360 321.025452,944.875732 
	C319.956238,944.879456 318.886993,944.883179 317.173401,944.592957 
	C309.687683,941.506592 302.846313,938.714233 295.706512,935.946411 
	C295.218903,936.034668 295.029755,936.098389 294.840576,936.162170 
	C294.840576,936.162170 294.987701,936.145691 294.920746,935.816589 
	C293.799988,934.271484 292.725647,933.072632 291.695923,931.836548 
	C287.602356,926.922729 283.143921,922.251892 279.595337,916.970459 
	C277.781006,914.270142 276.181580,912.713440 272.994843,912.989014 
	C272.994843,912.989014 273.005707,912.995239 273.025146,912.623169 
	C271.230011,909.405334 269.779877,906.223938 267.528961,903.779968 
	C261.902710,897.671021 255.913071,891.896790 250.069229,885.988220 
	C250.069229,885.988220 250.004028,885.990356 250.025284,885.588501 
	C249.833893,884.388489 249.845749,883.411987 249.374725,882.819031 
	C242.942688,874.723328 236.596146,866.551636 229.914917,858.664429 
	C224.262436,851.991760 218.283646,845.587952 212.281952,839.222961 
	C210.102127,836.911194 207.438187,835.055908 204.995117,832.992310 
	C204.995117,832.992310 205.003052,832.996826 205.008530,832.634521 
	C202.178558,826.795471 198.919327,821.700134 193.037781,818.964783 
	C193.037781,818.964783 193.000000,819.000000 192.982208,818.612061 
	C189.395782,813.125061 185.943680,807.937012 182.167877,802.996338 
	C181.334656,801.906006 179.354828,801.691956 177.902969,801.074402 
	C177.902969,801.074402 177.974976,801.002075 177.939941,800.676270 
	C175.518692,797.076538 173.305054,793.658630 170.715515,790.554260 
	C160.998093,778.905090 151.195709,767.325745 141.309906,755.819336 
	C140.232483,754.565247 138.409134,753.952087 136.931747,753.041626 
	C136.931747,753.041626 136.994003,753.004761 136.994843,752.652039 
	C134.742630,745.011658 129.242889,740.677917 123.051758,736.973145 
	C123.051758,736.973145 122.997971,736.994141 123.014275,736.597107 
	C121.215294,731.094971 118.464653,726.828491 112.991455,725.002991 
	C112.991455,725.002991 113.000595,725.000000 112.993225,724.644897 
	C108.554642,718.605835 104.051224,712.976135 99.727989,707.211243 
	C98.017883,704.930969 96.708466,702.350159 94.802979,699.228638 
	C93.651932,698.793152 91.308800,697.906738 88.965660,697.020325 
	C88.965660,697.020325 89.000717,696.998779 88.998131,696.652710 
	C86.672562,693.859436 84.349579,691.412170 82.026596,688.964905 
	C82.026611,688.964905 82.002853,688.997559 82.000320,688.620972 
	C81.196167,686.634827 80.662384,684.804565 79.547920,683.453003 
	C73.827728,676.515808 67.917953,669.735352 62.152084,662.835266 
	C56.337551,655.876953 50.946751,648.532654 44.777637,641.909546 
	C33.804958,630.129456 27.699549,616.606323 27.873337,600.380432 
	C27.892302,598.609741 27.365282,596.833252 27.091505,595.059448 
	C27.080435,594.623779 27.069366,594.188049 27.449350,593.274902 
	C28.442528,591.833740 29.367989,590.940857 29.597099,589.895386 
	C32.073044,578.597351 34.505585,567.288818 36.814896,555.955627 
	C38.666798,546.867249 40.199142,537.712830 42.107456,528.637024 
	C47.077370,505.000366 52.206783,481.397278 57.162785,457.757782 
	C57.544441,455.937347 57.066422,453.936676 56.987972,452.019775 
	C56.995155,451.579773 57.002335,451.139801 57.362633,450.293823 
	C58.259331,449.111206 59.117180,448.401184 59.298275,447.547577 
	C61.292400,438.148254 63.232944,428.736572 65.051086,419.301880 
	C65.379387,417.598236 65.087494,415.775085 65.081932,414.007111 
	C65.084778,413.577820 65.087616,413.148529 65.475632,412.250427 
	C68.995003,407.962738 69.560081,403.677063 68.176460,399.037292 
M472.531555,805.085510 
	C473.363281,805.131409 474.205536,805.108093 475.025177,805.233154 
	C497.192627,808.614502 519.492493,809.112732 541.736328,806.891907 
	C563.996399,804.669678 585.911011,800.397888 607.205078,793.173645 
	C636.243530,783.322083 663.329041,769.623352 688.018066,751.549011 
	C711.341675,734.474243 731.799011,714.312378 749.499634,691.340149 
	C768.026489,667.295654 782.713074,641.181091 793.096924,612.689697 
	C801.589417,589.387756 807.115112,565.441406 809.371765,540.637756 
	C811.222168,520.299866 811.066650,500.063934 808.880310,479.855957 
	C806.666992,459.398132 801.889404,439.479614 795.333862,419.919403 
	C779.698486,373.267303 754.315918,332.798859 718.534302,299.132874 
	C691.135925,273.354492 659.622070,253.740051 624.492554,240.082306 
	C593.105164,227.879440 560.465637,221.431320 526.924133,219.993195 
	C507.316528,219.152512 487.717072,220.037323 468.170135,222.750000 
	C437.970795,226.940979 409.166077,235.620972 381.707825,248.594589 
	C345.015900,265.931000 313.220306,289.808838 286.527039,320.590332 
	C257.465363,354.102997 237.492218,392.384918 225.994171,434.969635 
	C217.424881,466.707245 214.315765,499.118683 216.659348,532.115173 
	C218.018051,551.244995 220.680740,570.043518 225.577118,588.512939 
	C238.001404,635.377808 261.287292,676.195740 294.153687,711.783691 
	C325.535828,745.764404 362.575531,771.217896 405.766357,787.768738 
	C427.100494,795.944092 449.127075,801.411133 472.531555,805.085510 
z"/>
<path fill="#3A6FBE" opacity="1.000000" stroke="none" 
	d="
M846.805908,192.654205 
	C845.753418,192.818314 844.340942,193.047714 843.305603,192.527161 
	C821.327026,181.477219 799.431946,170.260651 777.432312,159.253082 
	C761.838562,151.450714 746.058105,144.021454 730.465759,136.216324 
	C716.687927,129.319473 703.073364,122.097008 689.349976,115.090355 
	C682.863892,111.778831 676.268616,108.681938 669.763733,105.406494 
	C657.906067,99.435768 646.109680,93.342659 634.231201,87.413887 
	C618.938660,79.781082 603.550049,72.340309 588.278809,64.665550 
	C575.534546,58.260765 563.042786,51.336437 550.160889,45.229294 
	C542.869873,41.772701 534.994751,39.559307 527.437256,36.644432 
	C525.862244,36.036953 524.527588,34.806396 522.999268,33.515251 
	C529.803650,35.352844 537.118469,36.678314 543.511414,39.857574 
	C602.329956,69.108612 661.006958,98.644867 719.687683,128.172501 
	C755.356934,146.120956 790.960693,164.199539 826.592834,182.221695 
	C833.271545,185.599686 839.945496,188.987152 846.805908,192.654205 
z"/>
<path fill="#376ABC" opacity="1.000000" stroke="none" 
	d="
M321.392029,945.052246 
	C323.141663,944.594360 325.257782,944.067566 327.374084,944.066711 
	C451.350739,944.016907 575.327393,944.008911 699.304077,944.018616 
	C700.953918,944.018738 702.603760,944.295044 704.609314,944.645447 
	C703.170044,945.060547 701.375061,945.458252 699.580078,945.458374 
	C575.136353,945.467896 450.692657,945.446289 326.248932,945.417786 
	C324.752136,945.417480 323.255371,945.294556 321.392029,945.052246 
z"/>
<path fill="#406DBA" opacity="1.000000" stroke="none" 
	d="
M441.793396,60.670269 
	C438.141388,63.313568 434.396149,66.501106 430.124969,68.636787 
	C410.670471,78.364410 391.039581,87.738487 371.530212,97.357430 
	C360.826294,102.634903 350.249878,108.170357 339.593475,113.544914 
	C328.809906,118.983643 317.942230,124.258202 307.212341,129.800110 
	C289.979584,138.700684 272.885254,147.870575 255.606827,156.680344 
	C251.217545,158.918289 246.354584,160.227203 241.316376,161.947357 
	C256.248444,154.053726 271.527496,146.084885 286.907074,138.315063 
	C330.209229,116.438660 373.546661,94.632195 416.885193,72.827927 
	C425.040649,68.724800 433.265289,64.759186 441.793396,60.670269 
z"/>
<path fill="#406DBA" opacity="1.000000" stroke="none" 
	d="
M104.620667,241.064011 
	C103.556099,245.499832 102.034103,250.040314 100.828018,254.663193 
	C99.125702,261.188141 97.533371,267.747437 96.114113,274.339417 
	C93.078880,288.437073 90.238358,302.576599 87.220802,316.678131 
	C82.371086,339.341644 77.485573,361.997742 72.508133,384.633423 
	C71.603523,388.747314 70.186844,392.748627 68.701492,396.944336 
	C72.727165,376.208313 77.041351,355.326355 81.392921,334.452209 
	C86.590714,309.518829 91.604454,284.543610 97.185204,259.695953 
	C98.616989,253.321060 101.881638,247.357803 104.620667,241.064011 
z"/>
<path fill="#3A6FBE" opacity="1.000000" stroke="none" 
	d="
M976.876526,486.657776 
	C971.630066,483.550232 973.586609,477.667969 972.337280,472.933990 
	C969.882629,463.632477 968.360657,454.086395 966.401794,444.652039 
	C964.340027,434.722351 962.294922,424.788147 960.103394,414.886688 
	C957.467529,402.977936 954.474182,391.144989 952.022522,379.199799 
	C949.324097,366.052399 947.065308,352.814789 944.815979,339.317200 
	C947.528931,350.099152 950.140869,361.158813 952.534668,372.265472 
	C960.721802,410.251160 968.832275,448.253357 976.876526,486.657776 
z"/>
<path fill="#406DBA" opacity="1.000000" stroke="none" 
	d="
M56.741714,452.309937 
	C57.066422,453.936676 57.544441,455.937347 57.162785,457.757782 
	C52.206783,481.397278 47.077370,505.000366 42.107456,528.637024 
	C40.199142,537.712830 38.666798,546.867249 36.814896,555.955627 
	C34.505585,567.288818 32.073044,578.597351 29.597099,589.895386 
	C29.367989,590.940857 28.442528,591.833740 27.524239,592.955261 
	C30.454031,576.893799 33.577343,560.648926 36.972313,544.460938 
	C43.397652,513.823303 49.978951,483.218506 56.741714,452.309937 
z"/>
<path fill="#406DBA" opacity="1.000000" stroke="none" 
	d="
M26.896553,595.419556 
	C27.365282,596.833252 27.892302,598.609741 27.873337,600.380432 
	C27.699549,616.606323 33.804958,630.129456 44.777637,641.909546 
	C50.946751,648.532654 56.337551,655.876953 62.152084,662.835266 
	C67.917953,669.735352 73.827728,676.515808 79.547920,683.453003 
	C80.662384,684.804565 81.196167,686.634827 82.016586,688.608765 
	C73.785126,679.489746 65.438240,670.088196 57.313343,660.498596 
	C50.035301,651.908508 42.522419,643.454529 35.981445,634.318726 
	C27.805761,622.899780 24.333364,609.940430 26.896553,595.419556 
z"/>
<path fill="#3A6FBE" opacity="1.000000" stroke="none" 
	d="
M944.878174,336.674072 
	C943.700623,335.188995 942.014343,333.418304 941.591370,331.384827 
	C936.902039,308.843018 932.661438,286.205261 927.748840,263.713745 
	C925.499390,253.415115 922.848816,243.043976 915.001221,235.057968 
	C913.816345,233.852158 913.465027,231.827255 912.755981,229.821686 
	C921.774231,237.595093 926.302246,248.118103 928.768188,259.674988 
	C934.213440,285.194946 939.565857,310.734711 944.878174,336.674072 
z"/>
<path fill="#3A6FBE" opacity="1.000000" stroke="none" 
	d="
M873.324463,772.906128 
	C876.536499,767.749451 879.661011,762.149536 883.674194,757.282532 
	C891.926331,747.274536 900.579773,737.592468 909.209351,727.902161 
	C916.102966,720.161316 923.205750,712.606812 930.561646,704.956421 
	C920.073669,717.996704 909.310120,731.109497 898.382690,744.084290 
	C890.244812,753.747009 881.894836,763.231079 873.324463,772.906128 
z"/>
<path fill="#406DBA" opacity="1.000000" stroke="none" 
	d="
M205.090057,833.320312 
	C207.438187,835.055908 210.102127,836.911194 212.281952,839.222961 
	C218.283646,845.587952 224.262436,851.991760 229.914917,858.664429 
	C236.596146,866.551636 242.942688,874.723328 249.374725,882.819031 
	C249.845749,883.411987 249.833893,884.388489 250.032944,885.556824 
	C239.514511,873.843445 228.975281,861.789551 218.520844,849.662598 
	C213.985687,844.401978 209.624954,838.990967 205.090057,833.320312 
z"/>
<path fill="#3A6FBE" opacity="1.000000" stroke="none" 
	d="
M912.315552,228.901001 
	C910.822083,228.751541 908.968201,228.679901 907.560669,227.850677 
	C900.298889,223.572510 893.356384,218.712051 885.916626,214.785828 
	C874.531616,208.777557 862.811523,203.406326 851.300110,197.632156 
	C850.309143,197.135086 849.814453,195.648666 849.078186,194.252167 
	C863.311218,201.025772 877.695923,207.906448 891.740845,215.422012 
	C898.863770,219.233536 905.373840,224.190338 912.315552,228.901001 
z"/>
<path fill="#406DBA" opacity="1.000000" stroke="none" 
	d="
M137.013489,753.373657 
	C138.409134,753.952087 140.232483,754.565247 141.309906,755.819336 
	C151.195709,767.325745 160.998093,778.905090 170.715515,790.554260 
	C173.305054,793.658630 175.518692,797.076538 177.916809,800.721558 
	C171.477615,793.804199 164.945251,786.585815 158.596939,779.209045 
	C151.344238,770.781433 144.255295,762.212952 137.013489,753.373657 
z"/>
<path fill="#3A6FBE" opacity="1.000000" stroke="none" 
	d="
M520.734253,32.704216 
	C519.283264,33.287807 517.485657,33.966537 515.747864,33.837749 
	C503.014587,32.894104 491.968597,37.857426 480.951843,43.267563 
	C470.864075,48.221493 460.597839,52.812023 450.134735,57.337723 
	C449.859222,57.112747 449.937744,56.764584 449.937744,56.764584 
	C464.786621,49.514359 479.498505,41.962292 494.539368,35.134975 
	C502.660339,31.448700 511.581390,31.381889 520.734253,32.704216 
z"/>
<path fill="#3A6FBE" opacity="1.000000" stroke="none" 
	d="
M945.361511,687.929688 
	C945.825562,686.141174 946.184265,683.880920 947.441345,682.366272 
	C955.469604,672.693420 963.424377,662.932617 971.975891,653.732971 
	C975.976135,649.429504 977.494873,642.606079 984.654785,641.013550 
	C974.001038,654.256409 962.992615,667.513184 951.948486,680.740173 
	C949.930847,683.156677 947.767639,685.451660 945.361511,687.929688 
z"/>
<path fill="#406DBA" opacity="1.000000" stroke="none" 
	d="
M208.642242,178.139587 
	C208.103668,179.375015 207.488678,181.164093 206.274628,181.788605 
	C192.916473,188.660110 179.478470,195.377396 166.017212,202.045792 
	C164.737976,202.679504 163.154648,202.699356 161.312408,202.963409 
	C171.107025,197.515442 181.285416,192.077164 191.502960,186.713455 
	C197.063538,183.794403 202.690552,181.001984 208.642242,178.139587 
z"/>
<path fill="#406DBA" opacity="1.000000" stroke="none" 
	d="
M134.651123,216.089417 
	C134.354721,216.981110 133.902618,218.267670 133.015305,218.744675 
	C123.312080,223.960861 115.250359,231.111618 108.093231,239.390106 
	C107.490234,240.087585 106.458145,240.414093 105.271172,240.927704 
	C111.402298,228.752838 122.329796,221.817841 134.651123,216.089417 
z"/>
<path fill="#3A6FBE" opacity="1.000000" stroke="none" 
	d="
M992.849854,560.676392 
	C991.780945,559.273499 990.314941,557.577393 989.859680,555.643311 
	C987.275024,544.663086 984.875549,533.637756 982.560974,522.596802 
	C982.164795,520.706909 982.481812,518.667419 982.664673,516.368896 
	C984.853027,524.507996 986.887878,532.965759 988.825317,541.445740 
	C990.255798,547.706543 991.559387,553.996338 992.849854,560.676392 
z"/>
<path fill="#3A6FBE" opacity="1.000000" stroke="none" 
	d="
M985.328369,640.918823 
	C985.868896,638.584045 986.021912,635.357117 987.710388,633.846191 
	C994.195679,628.043152 995.841797,620.165161 998.113708,612.460266 
	C998.555115,610.963379 999.414856,609.589905 1000.408936,608.032959 
	C999.771301,620.739868 994.184875,631.454224 985.328369,640.918823 
z"/>
<path fill="#406DBA" opacity="1.000000" stroke="none" 
	d="
M89.068077,697.343872 
	C91.308800,697.906738 93.651932,698.793152 94.802979,699.228638 
	C96.708466,702.350159 98.017883,704.930969 99.727989,707.211243 
	C104.051224,712.976135 108.554642,718.605835 112.991203,724.649414 
	C105.054527,715.895203 97.112511,706.781372 89.068077,697.343872 
z"/>
<path fill="#3A6FBE" opacity="1.000000" stroke="none" 
	d="
M1000.891479,605.592285 
	C998.047668,591.907898 995.313416,577.773743 992.777893,563.341187 
	C995.651489,577.075989 998.326294,591.109192 1000.891479,605.592285 
z"/>
<path fill="#406DBA" opacity="1.000000" stroke="none" 
	d="
M250.143005,886.314209 
	C255.913071,891.896790 261.902710,897.671021 267.528961,903.779968 
	C269.779877,906.223938 271.230011,909.405334 273.027405,912.628906 
	C265.412415,904.217896 257.814606,895.429077 250.143005,886.314209 
z"/>
<path fill="#406DBA" opacity="1.000000" stroke="none" 
	d="
M273.082336,913.317566 
	C276.181580,912.713440 277.781006,914.270142 279.595337,916.970459 
	C283.143921,922.251892 287.602356,926.922729 291.695923,931.836548 
	C292.725647,933.072632 293.799988,934.271484 294.850769,935.842285 
	C288.765045,930.080750 282.661194,923.985107 276.616791,917.831055 
	C275.355194,916.546692 274.313110,915.046753 273.082336,913.317566 
z"/>
<path fill="#406DBA" opacity="1.000000" stroke="none" 
	d="
M240.580139,161.968521 
	C240.040283,163.153320 239.414215,164.915543 238.204056,165.532974 
	C230.469604,169.479187 222.629013,173.221222 214.765930,176.907974 
	C213.317551,177.587097 211.606964,177.707062 209.641174,178.053162 
	C219.584564,172.686356 229.904221,167.351486 240.580139,161.968521 
z"/>
<path fill="#406DBA" opacity="1.000000" stroke="none" 
	d="
M64.844513,414.302124 
	C65.087494,415.775085 65.379387,417.598236 65.051086,419.301880 
	C63.232944,428.736572 61.292400,438.148254 59.298275,447.547577 
	C59.117180,448.401184 58.259331,449.111206 57.439438,449.972229 
	C59.644451,438.236725 62.125778,426.416931 64.844513,414.302124 
z"/>
<path fill="#376ABC" opacity="1.000000" stroke="none" 
	d="
M711.288574,944.633545 
	C713.549866,943.216553 716.214966,941.891602 718.833008,940.479614 
	C724.432129,937.460144 730.015015,934.410339 735.585510,931.338318 
	C736.861694,930.634644 738.060547,929.790649 739.655457,929.008850 
	C732.813782,938.293518 722.669861,942.262573 711.288574,944.633545 
z"/>
<path fill="#406DBA" opacity="1.000000" stroke="none" 
	d="
M160.571777,202.905823 
	C160.364456,203.880066 160.021713,205.362732 159.176285,205.751083 
	C151.430252,209.309174 143.597000,212.677353 135.444077,216.063614 
	C143.467056,211.653122 151.835129,207.279907 160.571777,202.905823 
z"/>
<path fill="#406DBA" opacity="1.000000" stroke="none" 
	d="
M178.001770,801.400513 
	C179.354828,801.691956 181.334656,801.906006 182.167877,802.996338 
	C185.943680,807.937012 189.395782,813.125061 193.000366,818.593445 
	C188.057755,813.217407 183.079178,807.471985 178.001770,801.400513 
z"/>
<path fill="#3A6FBE" opacity="1.000000" stroke="none" 
	d="
M982.756958,513.683228 
	C981.562866,511.702240 979.880615,509.430908 979.352600,506.917145 
	C978.150574,501.195129 977.515076,495.354095 976.852539,489.258667 
	C978.968140,497.064880 980.880554,505.173828 982.756958,513.683228 
z"/>
<path fill="#3A6FBE" opacity="1.000000" stroke="none" 
	d="
M931.278076,704.841797 
	C933.611084,697.881592 938.139709,692.338562 944.706787,688.094727 
	C940.574524,693.619446 936.090637,699.193115 931.278076,704.841797 
z"/>
<path fill="#406DBA" opacity="1.000000" stroke="none" 
	d="
M123.149055,737.295166 
	C129.242889,740.677917 134.742630,745.011658 136.975815,752.682861 
	C132.386093,747.916626 127.816216,742.766968 123.149055,737.295166 
z"/>
<path fill="#376ABC" opacity="1.000000" stroke="none" 
	d="
M296.004944,935.921875 
	C302.846313,938.714233 309.687683,941.506592 316.777649,944.526733 
	C309.348114,944.671326 302.778168,941.415833 296.207306,937.017212 
	C295.998444,936.293030 296.001678,936.107483 296.004944,935.921875 
z"/>
<path fill="#376ABC" opacity="1.000000" stroke="none" 
	d="
M822.332275,832.925659 
	C825.267456,826.711914 828.762024,820.616821 835.603088,816.981201 
	C831.527588,822.263672 827.093384,827.557922 822.332275,832.925659 
z"/>
<path fill="#406DBA" opacity="1.000000" stroke="none" 
	d="
M193.112106,819.296936 
	C198.919327,821.700134 202.178558,826.795471 205.011292,832.638245 
	C201.067841,828.545898 197.127136,824.087463 193.112106,819.296936 
z"/>
<path fill="#376ABC" opacity="1.000000" stroke="none" 
	d="
M777.341064,885.922424 
	C778.463013,880.541931 780.762268,875.749084 787.099487,873.903931 
	C784.176941,877.850342 780.919189,881.834778 777.341064,885.922424 
z"/>
<path fill="#376ABC" opacity="1.000000" stroke="none" 
	d="
M806.338989,851.951050 
	C807.693787,846.327515 810.674072,841.640564 816.672607,839.044434 
	C813.570129,843.295105 810.117371,847.574890 806.338989,851.951050 
z"/>
<path fill="#406DBA" opacity="1.000000" stroke="none" 
	d="
M113.065186,725.335449 
	C118.464653,726.828491 121.215294,731.094971 123.028351,736.571899 
	C119.730392,733.185120 116.434654,729.426514 113.065186,725.335449 
z"/>
<path fill="#376ABC" opacity="1.000000" stroke="none" 
	d="
M840.364441,811.945923 
	C842.033447,807.822815 842.943115,802.768311 848.725647,801.114746 
	C846.293213,804.674561 843.487305,808.253601 840.364441,811.945923 
z"/>
<path fill="#406DBA" opacity="1.000000" stroke="none" 
	d="
M67.970337,399.358398 
	C69.560081,403.677063 68.995003,407.962738 65.555214,411.937500 
	C66.087822,407.955414 66.926018,403.817444 67.970337,399.358398 
z"/>
<path fill="#3A6FBE" opacity="1.000000" stroke="none" 
	d="
M849.413147,800.965454 
	C848.906616,797.345032 848.478027,793.438354 854.660339,794.083008 
	C853.295532,796.347534 851.510437,798.599243 849.413147,800.965454 
z"/>
<path fill="#376ABC" opacity="1.000000" stroke="none" 
	d="
M740.333191,928.929260 
	C742.109436,926.377502 744.212708,923.739868 746.659119,921.049683 
	C744.888306,923.612610 742.774292,926.227966 740.333191,928.929260 
z"/>
<path fill="#406DBA" opacity="1.000000" stroke="none" 
	d="
M82.129356,689.285645 
	C84.349579,691.412170 86.672562,693.859436 88.987518,696.670349 
	C86.730362,694.558105 84.481239,692.082214 82.129356,689.285645 
z"/>
<path fill="#3A6FBE" opacity="1.000000" stroke="none" 
	d="
M867.376404,779.927490 
	C868.819885,777.727661 870.577637,775.421814 872.676392,773.062012 
	C871.241821,775.279175 869.466248,777.550293 867.376404,779.927490 
z"/>
<path fill="#376ABC" opacity="1.000000" stroke="none" 
	d="
M759.332886,906.894409 
	C760.809875,904.701843 762.602844,902.401428 764.745850,900.067505 
	C763.280212,902.284851 761.464478,904.535706 759.332886,906.894409 
z"/>
<path fill="#376ABC" opacity="1.000000" stroke="none" 
	d="
M796.398682,863.954346 
	C795.838562,860.877258 797.027283,858.705688 800.654053,858.002625 
	C799.557678,859.941345 798.135681,861.896606 796.398682,863.954346 
z"/>
<path fill="#3A6FBE" opacity="1.000000" stroke="none" 
	d="
M861.340576,786.926636 
	C862.802917,784.746948 864.578796,782.453979 866.695679,780.110352 
	C865.242554,782.310852 863.448303,784.562134 861.340576,786.926636 
z"/>
<path fill="#376ABC" opacity="1.000000" stroke="none" 
	d="
M788.339233,872.947021 
	C789.480347,871.094299 790.937378,869.122742 792.745972,867.077393 
	C791.616760,868.945068 790.135986,870.886658 788.339233,872.947021 
z"/>
<path fill="#376ABC" opacity="1.000000" stroke="none" 
	d="
M755.318359,911.888306 
	C756.103088,910.364746 757.200256,908.739136 758.651611,907.065796 
	C757.880859,908.607483 756.755859,910.196899 755.318359,911.888306 
z"/>
<path fill="#376ABC" opacity="1.000000" stroke="none" 
	d="
M749.280823,918.863525 
	C750.071716,917.348022 751.175232,915.725769 752.619019,914.041992 
	C751.837280,915.572571 750.715393,917.164612 749.280823,918.863525 
z"/>
<path fill="#376ABC" opacity="1.000000" stroke="none" 
	d="
M817.340942,838.938782 
	C818.117615,837.390076 819.219482,835.758728 820.663086,834.074097 
	C819.891968,835.632568 818.779053,837.244324 817.340942,838.938782 
z"/>
<path fill="#376ABC" opacity="1.000000" stroke="none" 
	d="
M773.285828,890.819092 
	C774.092468,889.303284 775.217957,887.714111 776.685303,886.072144 
	C775.886292,887.594849 774.745483,889.170349 773.285828,890.819092 
z"/>
<path fill="#376ABC" opacity="1.000000" stroke="none" 
	d="
M801.300537,857.882568 
	C802.115540,856.354492 803.247437,854.729980 804.731079,853.068237 
	C803.927734,854.616089 802.772644,856.201111 801.300537,857.882568 
z"/>
<path fill="#3A6FBE" opacity="1.000000" stroke="none" 
	d="
M857.336304,791.904419 
	C858.133423,790.384521 859.239868,788.751221 860.693115,787.070679 
	C859.908447,788.612610 858.777039,790.201904 857.336304,791.904419 
z"/>
<path fill="#376ABC" opacity="1.000000" stroke="none" 
	d="
M836.273193,816.844360 
	C837.086060,815.326782 838.203003,813.691833 839.689941,812.052246 
	C838.898987,813.607422 837.738159,815.167175 836.273193,816.844360 
z"/>
<path fill="#406DBA" opacity="1.000000" stroke="none" 
	d="
M448.772797,57.162674 
	C449.058899,57.612408 449.011475,58.043526 448.780884,58.853798 
	C448.597717,59.232956 448.269104,59.539249 448.269104,59.539249 
	C447.381622,59.510574 446.494110,59.481903 445.307922,59.294212 
	C446.152588,58.471481 447.295929,57.807770 448.772797,57.162674 
z"/>
<path fill="#376ABC" opacity="1.000000" stroke="none" 
	d="
M768.261475,896.837708 
	C768.749878,895.647034 769.552795,894.380249 770.697144,893.082092 
	C770.217773,894.287720 769.396851,895.524658 768.261475,896.837708 
z"/>
<path fill="#376ABC" opacity="1.000000" stroke="none" 
	d="
M793.641602,866.503723 
	C794.004150,865.769653 794.676025,864.945190 795.701294,864.100647 
	C795.353455,864.858154 794.652161,865.635742 793.641602,866.503723 
z"/>
<path fill="#376ABC" opacity="1.000000" stroke="none" 
	d="
M753.256104,913.858337 
	C753.447327,913.345215 753.919006,912.736145 754.689941,912.067017 
	C754.505005,912.592163 754.020813,913.177307 753.256104,913.858337 
z"/>
<path fill="#406DBA" opacity="1.000000" stroke="none" 
	d="
M443.886353,59.605011 
	C443.818634,59.827183 443.537048,60.051243 443.124512,60.185078 
	C443.146240,59.829723 443.372528,59.667072 443.886353,59.605011 
z"/>
<path fill="#406DBA" opacity="1.000000" stroke="none" 
	d="
M449.787231,56.754662 
	C449.937744,56.764584 449.859222,57.112747 449.814758,57.287407 
	C449.770325,57.462067 449.475555,57.355618 449.355713,57.254410 
	C449.273834,56.923042 449.407440,56.786888 449.787231,56.754662 
z"/>
<path fill="#406DBA" opacity="1.000000" stroke="none" 
	d="
M295.706512,935.946411 
	C296.001678,936.107483 295.998444,936.293030 295.988770,936.756958 
	C295.648712,936.919678 295.315125,936.804077 294.911072,936.425293 
	C295.029755,936.098389 295.218903,936.034668 295.706512,935.946411 
z"/>
<path fill="#376ABC" opacity="1.000000" stroke="none" 
	d="
M771.311768,893.003418 
	C771.112488,892.710693 771.282837,892.440735 771.771484,892.125122 
	C771.852661,892.331299 771.716553,892.646851 771.311768,893.003418 
z"/>
<path fill="#376ABC" opacity="1.000000" stroke="none" 
	d="
M766.240906,898.938599 
	C766.003784,898.653320 766.143738,898.380005 766.624084,898.075867 
	C766.723633,898.282654 766.608154,898.584473 766.240906,898.938599 
z"/>
<path fill="#376ABC" opacity="1.000000" stroke="none" 
	d="
M767.196289,897.792603 
	C766.997498,897.493469 767.163513,897.246704 767.675781,897.018555 
	C767.902161,897.312988 767.748474,897.582275 767.196289,897.792603 
z"/>
<path fill="#376ABC" opacity="1.000000" stroke="none" 
	d="
M772.258911,891.929016 
	C772.027649,891.644653 772.173401,891.370422 772.667114,891.072876 
	C772.760986,891.278198 772.634583,891.574707 772.258911,891.929016 
z"/>
<path fill="#3A6FBE" opacity="1.000000" stroke="none" 
	d="
M856.317505,793.009155 
	C856.134460,792.738037 856.309998,792.464233 856.803589,792.138428 
	C856.874451,792.329773 856.725952,792.636536 856.317505,793.009155 
z"/>
<path fill="#376ABC" opacity="1.000000" stroke="none" 
	d="
M821.270386,833.945251 
	C821.187927,833.727905 821.357727,833.450867 821.763428,833.089233 
	C821.840393,833.298279 821.681519,833.591919 821.270386,833.945251 
z"/>
<path fill="#3A6FBE" opacity="1.000000" stroke="none" 
	d="
M855.345825,794.013428 
	C855.174561,793.747986 855.353088,793.476318 855.853760,793.162354 
	C855.917480,793.351196 855.757446,793.646912 855.345825,794.013428 
z"/>
<g transform="translate(512, 512) scale(1.08) translate(-512, -512)">
<path fill="#010103" opacity="1.000000" stroke="none" transform="translate(512, 512) scale(1.05) translate(-512, -512)"
	d="
M472.090210,805.051880 
	C449.127075,801.411133 427.100494,795.944092 405.766357,787.768738 
	C362.575531,771.217896 325.535828,745.764404 294.153687,711.783691 
	C261.287292,676.195740 238.001404,635.377808 225.577118,588.512939 
	C220.680740,570.043518 218.018051,551.244995 216.659348,532.115173 
	C214.315765,499.118683 217.424881,466.707245 225.994171,434.969635 
	C237.492218,392.384918 257.465363,354.102997 286.527039,320.590332 
	C313.220306,289.808838 345.015900,265.931000 381.707825,248.594589 
	C409.166077,235.620972 437.970795,226.940979 468.170135,222.750000 
	C487.717072,220.037323 507.316528,219.152512 526.924133,219.993195 
	C560.465637,221.431320 593.105164,227.879440 624.492554,240.082306 
	C659.622070,253.740051 691.135925,273.354492 718.534302,299.132874 
	C754.315918,332.798859 779.698486,373.267303 795.333862,419.919403 
	C801.889404,439.479614 806.666992,459.398132 808.880310,479.855957 
	C811.066650,500.063934 811.222168,520.299866 809.371765,540.637756 
	C807.115112,565.441406 801.589417,589.387756 793.096924,612.689697 
	C782.713074,641.181091 768.026489,667.295654 749.499634,691.340149 
	C731.799011,714.312378 711.341675,734.474243 688.018066,751.549011 
	C663.329041,769.623352 636.243530,783.322083 607.205078,793.173645 
	C585.911011,800.397888 563.996399,804.669678 541.736328,806.891907 
	C519.492493,809.112732 497.192627,808.614502 475.025177,805.233154 
	C474.205536,805.108093 473.363281,805.131409 472.090210,805.051880 
M653.824463,707.813782 
	C653.824463,707.813782 653.883545,707.813354 654.318054,707.614136 
	C654.590698,707.427734 654.787720,707.180969 654.958618,706.996582 
	C654.958618,706.996582 654.888428,706.883240 655.601440,706.843811 
	C660.354492,702.826843 665.107483,698.809875 670.050903,694.340759 
	C670.050903,694.340759 670.455750,694.063477 670.941162,693.986755 
	C671.257874,693.632324 671.574585,693.277893 671.916382,692.914124 
	C671.916382,692.914124 671.930725,692.891602 672.395569,692.754395 
	C672.695496,692.589905 672.896057,692.344177 672.994629,691.990540 
	C672.994629,691.990540 673.019653,691.999878 673.652771,691.940002 
	C674.451782,691.051575 675.250854,690.163208 676.290222,688.958130 
	C676.290222,688.958130 676.665955,688.827881 677.179321,688.634094 
	C677.388367,688.342468 677.597351,688.050781 677.863037,687.858948 
	C677.863037,687.858948 677.764954,687.799255 678.245422,687.603699 
	C678.429077,687.319092 678.612732,687.034424 678.918823,686.922119 
	C678.918823,686.922119 678.769531,686.772400 679.471375,686.745483 
	C681.258545,684.735046 683.045654,682.724548 684.989685,680.315247 
	C685.151367,680.059631 685.379333,679.897095 686.188477,679.529236 
	C686.369507,679.184021 686.550476,678.838806 686.860718,678.179626 
	C686.860718,678.179626 687.165283,678.029663 687.843689,677.984741 
	C689.214294,676.288147 690.584900,674.591492 692.255920,672.303894 
	C696.422791,667.135132 700.799683,662.120544 704.722046,656.772461 
	C728.240051,624.705750 744.457825,589.501221 750.307068,549.880981 
	C751.869568,539.297180 746.590027,529.926392 736.105713,528.252319 
	C727.576172,526.890381 718.543945,527.166809 709.915283,528.210205 
	C680.814270,531.729187 655.399414,544.114746 634.116699,563.893494 
	C589.694031,605.176880 573.200745,657.186340 578.151367,716.669617 
	C579.561096,733.608093 590.169312,740.316956 606.029968,733.901611 
	C618.580200,728.825256 630.310974,721.722778 643.203491,715.702698 
	C644.412659,714.718384 645.621826,713.734070 647.079712,712.304932 
	C647.504456,712.044922 647.929260,711.784973 649.036926,711.576355 
	C649.662354,711.020081 650.287842,710.463745 650.992676,709.995361 
	C650.992676,709.995361 650.901978,709.918884 651.369080,709.736511 
	C651.581360,709.482971 651.793579,709.229431 652.174622,708.748596 
	C652.174622,708.748596 652.454163,708.703979 652.997498,708.588318 
	C653.271973,708.349792 653.546448,708.111267 653.824463,707.813782 
M740.113647,442.369598 
	C743.315552,436.159393 741.606201,429.904022 739.593262,424.004456 
	C732.284363,402.583679 721.343689,383.011505 707.464355,365.212494 
	C687.067993,339.056091 662.296204,317.837067 633.167969,301.882629 
	C599.847717,283.632080 563.975159,274.090027 526.174744,272.240326 
	C507.607300,271.331787 488.984314,271.670776 470.514374,274.997681 
	C446.002899,279.412811 422.512390,286.787933 400.321350,298.092926 
	C364.312744,316.437164 335.145966,342.649536 312.100830,375.723694 
	C301.607391,390.783752 292.432281,406.589081 286.983521,424.276154 
	C281.355103,442.546417 290.353912,454.384064 309.461609,454.304169 
	C321.716431,454.252899 332.989929,450.360657 344.013123,445.768646 
	C370.377380,434.785828 396.931671,424.240906 424.941986,418.381989 
	C444.031036,414.389130 463.372498,411.073273 482.769836,409.249786 
	C498.586029,407.762939 514.688599,408.261810 530.597778,409.116608 
	C547.283936,410.013092 564.040161,411.501953 580.501709,414.290344 
	C615.467163,420.213043 648.755371,431.920868 681.417786,445.555206 
	C694.178711,450.882050 707.312073,455.108246 721.519348,454.032959 
	C729.503235,453.428680 735.880249,450.314545 740.113647,442.369598 
M369.791901,546.688843 
	C346.750122,533.322021 322.248383,525.606873 295.272400,527.069946 
	C285.469208,527.601685 277.970856,532.926086 276.438873,541.726868 
	C275.764923,545.598450 275.693451,549.785950 276.374451,553.649109 
	C281.862396,584.781311 293.636688,613.599548 310.335815,640.254822 
	C328.561279,669.346375 352.044647,693.632202 380.711273,712.708496 
	C394.709625,722.023743 409.103180,730.543335 425.552124,735.035339 
	C440.458862,739.106201 447.341064,730.439209 448.524536,718.908203 
	C450.041290,704.129150 449.943024,688.970947 448.557098,674.161743 
	C446.842285,655.837830 441.453522,638.188110 433.872101,621.285522 
	C419.979065,590.311401 399.930573,564.661682 369.791901,546.688843 
M581.951050,456.391968 
	C571.970093,454.621735 562.060425,453.183502 551.818481,454.998657 
	C537.566406,457.524567 524.831726,468.475098 523.052673,480.572540 
	C520.439392,498.342743 526.221680,509.607178 542.190308,516.888184 
	C549.574341,520.255066 557.364868,522.726196 564.772095,526.047424 
	C570.649475,528.682739 573.016846,533.271362 572.007935,538.316040 
	C571.003845,543.336853 566.359558,546.727417 560.078674,547.049927 
	C550.785095,547.527039 541.878845,545.975220 533.410217,542.045471 
	C530.157837,540.536194 526.876587,539.089050 522.880798,537.285156 
	C522.880798,544.700134 522.722961,551.350708 523.014343,557.981445 
	C523.072449,559.301941 524.576660,561.118591 525.875488,561.736938 
	C536.900452,566.985596 548.622192,568.484680 560.738098,567.976868 
	C571.995300,567.505188 581.488220,563.562195 589.831909,555.795288 
	C601.248413,545.167908 602.136475,518.661011 584.550537,509.051910 
	C578.163330,505.561859 571.325623,502.902374 564.736084,499.774139 
	C560.399109,497.715149 555.767761,496.006470 551.933044,493.224518 
	C546.597351,489.353638 546.539551,483.644196 551.279785,479.153687 
	C555.773010,474.897186 561.585938,474.380920 567.160767,475.453888 
	C575.718323,477.100891 584.112061,479.599243 592.930603,481.826019 
	C592.930603,478.122681 592.925842,474.141510 592.931580,470.160370 
	C592.946472,459.762878 592.948242,459.762878 581.951050,456.391968 
M420.157898,458.875610 
	C420.178650,463.873810 420.434021,468.885895 420.140259,473.865540 
	C419.933441,477.371063 421.343506,478.087189 424.474274,478.021393 
	C432.301178,477.856842 440.145660,478.235748 447.960236,477.886078 
	C452.787048,477.670105 454.565979,478.816437 454.501770,484.130005 
	C454.205780,508.619354 454.379181,533.114502 454.412933,557.607605 
	C454.416107,559.902710 454.619415,562.197632 454.735291,564.606506 
	C463.371948,564.606506 471.606232,564.606506 480.424194,564.606506 
	C480.424194,560.453674 480.420258,556.640503 480.424835,552.827332 
	C480.453156,529.335327 480.536621,505.843170 480.451447,482.351562 
	C480.439667,479.096558 481.447144,477.887726 484.723297,477.990448 
	C490.048584,478.157471 495.384308,477.980377 500.715698,477.965210 
	C505.296997,477.952179 509.878387,477.962555 514.852478,477.962555 
	C514.852478,471.147522 514.797363,465.174988 514.877258,459.204285 
	C514.913635,456.487823 513.512146,455.876831 511.119568,455.882965 
	C482.128479,455.957336 453.137177,455.952454 424.146515,456.094360 
	C422.829529,456.100800 421.518341,457.305145 420.157898,458.875610 
z"/>
<path fill="#3A6FBE" opacity="1.000000" stroke="none" transform="translate(512, 512) scale(1.05) translate(-512, -512)"
	d="
M448.314758,59.639343 
	C448.269104,59.539249 448.597717,59.232956 448.688782,59.166698 
	C448.828857,59.500362 448.689026,59.713360 448.314758,59.639343 
z"/>
<path fill="#3584EC" opacity="1.000000" stroke="none" transform="translate(512, 512) scale(1.05) translate(-512, -512)"
	d="
M739.989868,442.732391 
	C735.880249,450.314545 729.503235,453.428680 721.519348,454.032959 
	C707.312073,455.108246 694.178711,450.882050 681.417786,445.555206 
	C648.755371,431.920868 615.467163,420.213043 580.501709,414.290344 
	C564.040161,411.501953 547.283936,410.013092 530.597778,409.116608 
	C514.688599,408.261810 498.586029,407.762939 482.769836,409.249786 
	C463.372498,411.073273 444.031036,414.389130 424.941986,418.381989 
	C396.931671,424.240906 370.377380,434.785828 344.013123,445.768646 
	C332.989929,450.360657 321.716431,454.252899 309.461609,454.304169 
	C290.353912,454.384064 281.355103,442.546417 286.983521,424.276154 
	C292.432281,406.589081 301.607391,390.783752 312.100830,375.723694 
	C335.145966,342.649536 364.312744,316.437164 400.321350,298.092926 
	C422.512390,286.787933 446.002899,279.412811 470.514374,274.997681 
	C488.984314,271.670776 507.607300,271.331787 526.174744,272.240326 
	C563.975159,274.090027 599.847717,283.632080 633.167969,301.882629 
	C662.296204,317.837067 687.067993,339.056091 707.464355,365.212494 
	C721.343689,383.011505 732.284363,402.583679 739.593262,424.004456 
	C741.606201,429.904022 743.315552,436.159393 739.989868,442.732391 
z"/>
<path fill="#3584EC" opacity="1.000000" stroke="none" transform="translate(512, 512) scale(1.05) translate(-512, -512)"
	d="
M370.094666,546.893066 
	C399.930573,564.661682 419.979065,590.311401 433.872101,621.285522 
	C441.453522,638.188110 446.842285,655.837830 448.557098,674.161743 
	C449.943024,688.970947 450.041290,704.129150 448.524536,718.908203 
	C447.341064,730.439209 440.458862,739.106201 425.552124,735.035339 
	C409.103180,730.543335 394.709625,722.023743 380.711273,712.708496 
	C352.044647,693.632202 328.561279,669.346375 310.335815,640.254822 
	C293.636688,613.599548 281.862396,584.781311 276.374451,553.649109 
	C275.693451,549.785950 275.764923,545.598450 276.438873,541.726868 
	C277.970856,532.926086 285.469208,527.601685 295.272400,527.069946 
	C322.248383,525.606873 346.750122,533.322021 370.094666,546.893066 
z"/>
<path fill="#3584EC" opacity="1.000000" stroke="none" transform="translate(512, 512) scale(1.05) translate(-512, -512)"
	d="
M685.673584,679.827637 
	C685.379333,679.897095 685.151367,680.059631 684.584167,680.600220 
	C682.375610,682.847656 680.572571,684.809998 678.769531,686.772400 
	C678.769531,686.772400 678.918823,686.922119 678.591248,686.897339 
	C678.097473,687.181458 677.931213,687.490356 677.764954,687.799255 
	C677.764954,687.799255 677.863037,687.858948 677.561340,687.880737 
	C677.061768,688.210999 676.863892,688.519409 676.665955,688.827881 
	C676.665955,688.827881 676.290222,688.958130 675.864380,689.164490 
	C674.632202,690.247192 673.825928,691.123535 673.019653,691.999878 
	C673.019653,691.999878 672.994629,691.990540 672.739136,692.030029 
	C672.299377,692.343506 672.115051,692.617554 671.930725,692.891602 
	C671.930725,692.891602 671.916382,692.914124 671.657837,692.941040 
	C671.084717,693.333069 670.770264,693.698303 670.455750,694.063477 
	C670.455750,694.063477 670.050903,694.340759 669.634888,694.692261 
	C664.442017,698.990234 659.665222,702.936768 654.888428,706.883240 
	C654.888428,706.883240 654.958618,706.996582 654.667114,706.960815 
	C654.211609,707.221130 654.047607,707.517273 653.883545,707.813354 
	C653.883545,707.813354 653.824463,707.813782 653.533081,707.864014 
	C652.979187,708.177551 652.716675,708.440796 652.454163,708.703979 
	C652.454163,708.703979 652.174622,708.748596 651.816040,708.883240 
	C651.272278,709.318237 651.087097,709.618530 650.901978,709.918884 
	C650.901978,709.918884 650.992676,709.995361 650.643860,710.000854 
	C649.648010,710.512573 649.000977,711.018738 648.354004,711.524902 
	C647.929260,711.784973 647.504456,712.044922 646.617371,712.548218 
	C644.905273,713.701050 643.655457,714.610596 642.405640,715.520081 
	C630.310974,721.722778 618.580200,728.825256 606.029968,733.901611 
	C590.169312,740.316956 579.561096,733.608093 578.151367,716.669617 
	C573.200745,657.186340 589.694031,605.176880 634.116699,563.893494 
	C655.399414,544.114746 680.814270,531.729187 709.915283,528.210205 
	C718.543945,527.166809 727.576172,526.890381 736.105713,528.252319 
	C746.590027,529.926392 751.869568,539.297180 750.307068,549.880981 
	C744.457825,589.501221 728.240051,624.705750 704.722046,656.772461 
	C700.799683,662.120544 696.422791,667.135132 691.780273,672.674683 
	C689.924866,674.706848 688.545044,676.368225 687.165283,678.029663 
	C687.165283,678.029663 686.860718,678.179626 686.514038,678.458923 
	C686.002808,679.101379 685.838196,679.464478 685.673584,679.827637 
z"/>
<path fill="#3881E6" opacity="1.000000" stroke="none" transform="translate(512, 512) scale(1.05) translate(-512, -512)"
	d="
M582.330566,456.563599 
	C592.948242,459.762878 592.946472,459.762878 592.931580,470.160370 
	C592.925842,474.141510 592.930603,478.122681 592.930603,481.826019 
	C584.112061,479.599243 575.718323,477.100891 567.160767,475.453888 
	C561.585938,474.380920 555.773010,474.897186 551.279785,479.153687 
	C546.539551,483.644196 546.597351,489.353638 551.933044,493.224518 
	C555.767761,496.006470 560.399109,497.715149 564.736084,499.774139 
	C571.325623,502.902374 578.163330,505.561859 584.550537,509.051910 
	C602.136475,518.661011 601.248413,545.167908 589.831909,555.795288 
	C581.488220,563.562195 571.995300,567.505188 560.738098,567.976868 
	C548.622192,568.484680 536.900452,566.985596 525.875488,561.736938 
	C524.576660,561.118591 523.072449,559.301941 523.014343,557.981445 
	C522.722961,551.350708 522.880798,544.700134 522.880798,537.285156 
	C526.876587,539.089050 530.157837,540.536194 533.410217,542.045471 
	C541.878845,545.975220 550.785095,547.527039 560.078674,547.049927 
	C566.359558,546.727417 571.003845,543.336853 572.007935,538.316040 
	C573.016846,533.271362 570.649475,528.682739 564.772095,526.047424 
	C557.364868,522.726196 549.574341,520.255066 542.190308,516.888184 
	C526.221680,509.607178 520.439392,498.342743 523.052673,480.572540 
	C524.831726,468.475098 537.566406,457.524567 551.818481,454.998657 
	C562.060425,453.183502 571.970093,454.621735 582.330566,456.563599 
z"/>
<path fill="#377FE5" opacity="1.000000" stroke="none" transform="translate(512, 512) scale(1.05) translate(-512, -512)"
	d="
M420.181152,458.413574 
	C421.518341,457.305145 422.829529,456.100800 424.146515,456.094360 
	C453.137177,455.952454 482.128479,455.957336 511.119568,455.882965 
	C513.512146,455.876831 514.913635,456.487823 514.877258,459.204285 
	C514.797363,465.174988 514.852478,471.147522 514.852478,477.962555 
	C509.878387,477.962555 505.296997,477.952179 500.715698,477.965210 
	C495.384308,477.980377 490.048584,478.157471 484.723297,477.990448 
	C481.447144,477.887726 480.439667,479.096558 480.451447,482.351562 
	C480.536621,505.843170 480.453156,529.335327 480.424835,552.827332 
	C480.420258,556.640503 480.424194,560.453674 480.424194,564.606506 
	C471.606232,564.606506 463.371948,564.606506 454.735291,564.606506 
	C454.619415,562.197632 454.416107,559.902710 454.412933,557.607605 
	C454.379181,533.114502 454.205780,508.619354 454.501770,484.130005 
	C454.565979,478.816437 452.787048,477.670105 447.960236,477.886078 
	C440.145660,478.235748 432.301178,477.856842 424.474274,478.021393 
	C421.343506,478.087189 419.933441,477.371063 420.140259,473.865540 
	C420.434021,468.885895 420.178650,463.873810 420.181152,458.413574 
z"/>
</g>
<path fill="#071134" opacity="1.000000" stroke="none" 
	d="
M655.244934,706.863525 
	C659.665222,702.936768 664.442017,698.990234 669.539673,694.918335 
	C665.107483,698.809875 660.354492,702.826843 655.244934,706.863525 
z"/>
<path fill="#071134" opacity="1.000000" stroke="none" 
	d="
M679.120483,686.758911 
	C680.572571,684.809998 682.375610,682.847656 684.505737,680.799683 
	C683.045654,682.724548 681.258545,684.735046 679.120483,686.758911 
z"/>
<path fill="#071134" opacity="1.000000" stroke="none" 
	d="
M687.504517,678.007202 
	C688.545044,676.368225 689.924866,674.706848 691.630127,672.970154 
	C690.584900,674.591492 689.214294,676.288147 687.504517,678.007202 
z"/>
<path fill="#071134" opacity="1.000000" stroke="none" 
	d="
M642.804565,715.611389 
	C643.655457,714.610596 644.905273,713.701050 646.493042,712.770630 
	C645.621826,713.734070 644.412659,714.718384 642.804565,715.611389 
z"/>
<path fill="#071134" opacity="1.000000" stroke="none" 
	d="
M673.336182,691.969971 
	C673.825928,691.123535 674.632202,690.247192 675.744202,689.322876 
	C675.250854,690.163208 674.451782,691.051575 673.336182,691.969971 
z"/>
<path fill="#071134" opacity="1.000000" stroke="none" 
	d="
M648.695435,711.550659 
	C649.000977,711.018738 649.648010,710.512573 650.604126,709.956909 
	C650.287842,710.463745 649.662354,711.020081 648.695435,711.550659 
z"/>
<path fill="#071134" opacity="1.000000" stroke="none" 
	d="
M670.698486,694.025146 
	C670.770264,693.698303 671.084717,693.333069 671.645264,692.945679 
	C671.574585,693.277893 671.257874,693.632324 670.698486,694.025146 
z"/>
<path fill="#071134" opacity="1.000000" stroke="none" 
	d="
M685.931030,679.678467 
	C685.838196,679.464478 686.002808,679.101379 686.449463,678.615906 
	C686.550476,678.838806 686.369507,679.184021 685.931030,679.678467 
z"/>
<path fill="#071134" opacity="1.000000" stroke="none" 
	d="
M678.005188,687.701477 
	C677.931213,687.490356 678.097473,687.181458 678.530029,686.811157 
	C678.612732,687.034424 678.429077,687.319092 678.005188,687.701477 
z"/>
<path fill="#071134" opacity="1.000000" stroke="none" 
	d="
M676.922607,688.730957 
	C676.863892,688.519409 677.061768,688.210999 677.532959,687.830811 
	C677.597351,688.050781 677.388367,688.342468 676.922607,688.730957 
z"/>
<path fill="#071134" opacity="1.000000" stroke="none" 
	d="
M672.163147,692.822998 
	C672.115051,692.617554 672.299377,692.343506 672.740417,692.043335 
	C672.896057,692.344177 672.695496,692.589905 672.163147,692.822998 
z"/>
<path fill="#071134" opacity="1.000000" stroke="none" 
	d="
M654.100830,707.713745 
	C654.047607,707.517273 654.211609,707.221130 654.642395,706.899414 
	C654.787720,707.180969 654.590698,707.427734 654.100830,707.713745 
z"/>
<path fill="#071134" opacity="1.000000" stroke="none" 
	d="
M652.725830,708.646118 
	C652.716675,708.440796 652.979187,708.177551 653.531250,707.893555 
	C653.546448,708.111267 653.271973,708.349792 652.725830,708.646118 
z"/>
<path fill="#071134" opacity="1.000000" stroke="none" 
	d="
M651.135498,709.827698 
	C651.087097,709.618530 651.272278,709.318237 651.731628,708.996826 
	C651.793579,709.229431 651.581360,709.482971 651.135498,709.827698 
z"/>
</svg>